Coordinates

Units are S.I. units (second, meters, Newtons, ...)
If the header above contains a line with 'inDegrees', this indicates whether rotational values are in degrees (yes) or radians (no).

inDegrees=no
nColumns=21
nRows=27
DataType=double
version=3
OpenSimVersion=4.6-2026-03-31-d6972f9e6
endheader
time	/jointset/ground_pelvis/pelvis_tilt/value	/jointset/ground_pelvis/pelvis_list/value	/jointset/ground_pelvis/pelvis_rotation/value	/jointset/ground_pelvis/pelvis_tx/value	/jointset/ground_pelvis/pelvis_ty/value	/jointset/ground_pelvis/pelvis_tz/value	/jointset/hip_r/hip_flexion_r/value	/jointset/hip_r/hip_adduction_r/value	/jointset/hip_r/hip_rotation_r/value	/jointset/walker_knee_r/knee_angle_r/value	/jointset/patellofemoral_r/knee_angle_r_beta/value	/jointset/ankle_r/ankle_angle_r/value	/jointset/subtalar_r/subtalar_angle_r/value	/jointset/hip_l/hip_flexion_l/value	/jointset/hip_l/hip_adduction_l/value	/jointset/hip_l/hip_rotation_l/value	/jointset/walker_knee_l/knee_angle_l/value	/jointset/patellofemoral_l/knee_angle_l_beta/value	/jointset/ankle_l/ankle_angle_l/value	/jointset/subtalar_l/subtalar_angle_l/value
147.496	-0.1618885217608613	0.08747427694640188	0.1515245250833141	1.220842713912024	1.036103620554271	-0.3314002096817951	-0.1129836784339916	-0.08136958409448626	-0.07664693972776597	0.7323937704736506	0.7323937690821604	-0.6321566658676202	-0.4292125144875904	0.4920982462012623	0.1480709879028619	-0.04765032732045014	0.2494967460716627	0.2494967459972765	-0.05313905653416834	-0.06266898228896033
147.5	-0.1596168905262346	0.0858129429092801	0.1519854209554037	1.220751162552323	1.034291896868594	-0.3321978771943306	-0.1046183443606042	-0.08067992336151907	-0.07425671680173758	0.7644018906858333	0.7644018893590229	-0.6235617269397594	-0.4307806475812103	0.4866549015424633	0.1463194326166573	-0.04483219395890379	0.253463056704506	0.2534630566411136	-0.04990835086638264	-0.05650698109874747
147.504	-0.1570453784767731	0.084482227236272	0.1527066940551115	1.220636778994781	1.032352193769163	-0.3330057694517312	-0.09635862802307342	-0.08048521792226751	-0.07258225219477321	0.7966335525194708	0.7966335512797729	-0.614007438553556	-0.43111590356594	0.4813991207250321	0.1449224861269362	-0.0416649328546036	0.2601838664963032	0.2601838664464867	-0.04662135751448954	-0.05249149465035122
147.508	-0.1542280383211221	0.08350995342298592	0.1537076282922545	1.220494242574106	1.030277249621261	-0.3338269770967001	-0.08815411319891103	-0.08086899956408553	-0.07164557143939917	0.8290863732052731	0.8290863720692496	-0.6036198565376524	-0.4303293801242702	0.4763863968443047	0.143951032313784	-0.03820589490156896	0.2695613354125534	0.269561335380488	-0.04296459174390568	-0.05057715030893798
147.512	-0.151229825685758	0.08291635880571756	0.1550060675643842	1.2203172407149	1.028059262283932	-0.3346647825531157	-0.07993642705842956	-0.08190993364122241	-0.07145454793360438	0.861767024459116	0.8617670234356225	-0.5925290769349817	-0.4285494831477703	0.4716843699345938	0.1434703568618374	-0.03451981016099647	0.281486988193336	0.2814869881845877	-0.03864324644839862	-0.05069529509747584
147.516	-0.1481257958428334	0.08271391933074755	0.1566181583676809	1.2200986220861	1.025690433359297	-0.3355225375518232	-0.07162085682032651	-0.08367974173400294	-0.07200150698373066	0.8946872034018997	0.8946872024910124	-0.5808681191689542	-0.4259187664821475	0.4673708228292435	0.1435387393374449	-0.03067586381582509	0.2958413148904265	0.2958413149115529	-0.03339430630568949	-0.05275883188830444
147.52	-0.144999812265829	0.08290735861703097	0.1585578707826875	1.21983059553671	1.023163557556233	-0.3364035240455676	-0.06310843085679205	-0.08624120245380029	-0.07326208856595216	0.9278596134314102	0.9278596126242125	-0.5687712555170643	-0.4225901755118004	0.4635307762812623	0.1442061147041917	-0.02674427360022223	0.3124928228788444	0.3124928229368044	-0.02699814790853829	-0.05666677123825126
147.524	-0.1419426888231148	0.08349387475084692	0.1608362951190202	1.219504974038499	1.020472646191539	-0.3373107981917255	-0.05428855408276721	-0.08964628395038915	-0.07519444813473138	0.9612940531643431	0.961294052443616	-0.5563719394377167	-0.4187228873657249	0.4602526798165664	0.1455128529946116	-0.02279266074709342	0.3312966644990833	0.3312966646003321	-0.01928802051038812	-0.06230824027063742
147.528	-0.1390497410774686	0.08446360340648201	0.1634607215618844	1.219113460234386	1.017613568475825	-0.3382470173284591	-0.04504223180695665	-0.09393444851611128	-0.07773884441246307	0.9949937164939173	0.9949937158358463	-0.5438004846144967	-0.4144779367747149	0.4576237900179718	0.1474886933181729	-0.01888253606497581	0.3520930337676416	0.3520930339168726	-0.01015689755187785	-0.06956574931582099
147.532	-0.1364177703972279	0.08580031004346414	0.1664335261292901	1.218647967383381	1.014584689658779	-0.3392142513069598	-0.03524586823794826	-0.09913115264268955	-0.08081765118860604	1.028951802005535	1.028951801382505	-0.5311816369295134	-0.4100138001345011	0.455724904932593	0.150151847542621	-0.0150662112201389	0.3747055650199247	0.3747055652186975	0.0004386720066851483	-0.07831759929501626
147.536	-0.1341415409267582	0.08748227900415333	0.1697509118145158	1.21810096702388	1.011387482481362	-0.3402137827177019	-0.0247755959353774	-0.1052465590921357	-0.08433585638240344	1.063148511289526	1.063148510673746	-0.5186322094982206	-0.4054821362851332	0.4546246706444144	0.1535082739609225	-0.01138440532931735	0.3989399728613241	0.3989399731069468	0.01247791576908177	-0.08843940376458312
147.54	-0.1323098404519303	0.08948334858790601	0.1734015773667165	1.217465852653037	1.008027087327761	-0.3412459035608376	-0.01351206719058798	-0.1122744734585142	-0.08818212913494387	1.097548496918285	1.097548496285619	-0.5062589748360105	-0.4010239083515654	0.4543737039784215	0.1575511139023658	-0.007864746292826677	0.4245831550521121	0.4245831553370424	0.02587840875455897	-0.09980478699533185
147.544	-0.1310012448850126	0.09177403145831352	0.1773653947217529	1.216737306655193	1.004512797190869	-0.3423097167197741	-0.001345609958732012	-0.1201915083296356	-0.09223050164798838	1.1320988081446	1.132098807477799	-0.4941569772834312	-0.3967660839630341	0.4549987918768926	0.16226028097067	-0.004521271521231606	0.4514029460056923	0.4514029463176081	0.0405016683338855	-0.1122853897477703
147.548	-0.1302797556953842	0.09432265340398339	0.1816121792396332	1.215911654678616	1.000858443055035	-0.3434029506097554	0.01181840923567782	-0.1289564710714891	-0.09634265089977137	1.166727384550907	1.166727383841564	-0.4824083394125998	-0.3928190264881984	0.4564974680746777	0.1676021941264825	-0.00135493436594307	0.4791486750713515	0.4791486753939526	0.05616136419553373	-0.1257503613385426
147.552	-0.1301905955284431	0.09709642648344684	0.1861006569585251	1.214987186987915	0.9970826470480798	-0.3445217977736567	0.02605432135896986	-0.1385099790333954	-0.1003707289004978	1.201342186437998	1.201342185686837	-0.4710814903817276	-0.3892745484242234	0.458833393607772	0.1735296538049077	0.001644958211855874	0.5075526753831874	0.5075526756976227	0.07263355681421274	-0.1400655417430301
147.556	-0.1307565547674157	0.1000623589990857	0.1907777570614172	1.213964423352526	0.9932089028646315	-0.3456607918472125	0.04141143458855664	-0.1487743290719505	-0.1041606901848133	1.235831086519627	1.235831085735172	-0.4602306217312181	-0.3862044765911668	0.461933074031713	0.1799818746626063	0.00449851200495849	0.5363328685784036	0.5363328688650498	0.0896682641602253	-0.1550925481630105
147.56	-0.1319752172521085	0.103187931568128	0.1955783402402766	1.212846302351188	0.9892654550018678	-0.3468127368732823	0.05791022269844699	-0.1596536707630004	-0.1075560593032426	1.270062595562213	1.270062594758266	-0.4498952350120404	-0.3836596226465946	0.4656843047987032	0.1868847094942172	0.00723240942517918	0.5651964334451456	0.5651964336854853	0.1070016115095944	-0.1706879956479971
147.564	-0.1338172450120328	0.1064415108987416	0.2004254148616432	1.211638283897254	0.9852849705855816	-0.3479686978075489	0.07553961141373974	-0.1710345342745506	-0.110402024832033	1.303887399625331	1.303887398817944	-0.4400998165116272	-0.3816691712735381	0.4699364728550343	0.1941511132492957	0.009876722980422564	0.5938443965531153	0.5938443967316575	0.1243678387742	-0.1867031024889877
147.568	-0.1362258734575826	0.1097924837994792	0.205230849838988	1.210348357299509	0.9813040059478225	-0.3491180572818881	0.0942555399656574	-0.1827867538327449	-0.112549677135996	1.337140657247112	1.33714065645163	-0.4308537194347065	-0.3802404846879797	0.4745027564847933	0.201681895472097	0.01246165842832132	0.6219768932235604	0.6219768933298631	0.141510500788893	-0.2029839148352813
147.572	-0.1391177461719618	0.1132111125759663	0.2098965902374037	1.20898694952248	0.9773622765146005	-0.3502486439503675	0.1139809596472154	-0.1947648401001251	-0.1138602150390707	1.369644992241075	1.369644991469707	-0.4221512911436732	-0.3793592959180836	0.4791642200105664	0.209366815414702	0.0150144823083228	0.649298831402685	0.6492988314334665	0.1581922669999325	-0.2193722977948814
147.576	-0.1423850774929444	0.1166681662576313	0.2143163835295903	1.207566734321048	0.9735017571191862	-0.3513469376562319	0.1346072534954061	-0.2068098793521326	-0.1142090115257625	1.401214056610687	1.401214055870856	-0.4139723083811677	-0.378990366794095	0.4836756174981071	0.2170860882509885	0.01755683169536381	0.675525675578972	0.6755256755400918	0.1742028148239091	-0.2357077200752991
147.58	-0.1458990332494284	0.1201344097109709	0.2183780014553496	1.20610234809747	0.9697656525424098	-0.3523983525867448	0.1559969559149665	-0.2187520222224525	-0.1134894383591195	1.431656499602975	1.431656498896728	-0.4062828082846006	-0.3790787362094334	0.4877725997807689	0.2247123559557021	0.02010254571148977	0.7003890691385056	0.7003890690464063	0.1893644516279165	-0.2518297695750607
147.584	-0.1495142253568214	0.1235800158877361	0.2219659023959851	1.20461002082501	0.9661972775435027	-0.353387592840046	0.1779876961894369	-0.2304135653706912	-0.1116162968011524	1.460780193178367	1.460780192502979	-0.399036353256972	-0.379551585581728	0.4911800416917532	0.2321131248441472	0.02265610103077468	0.7236420512957693	0.7236420511779347	0.2035352881267625	-0.2675812814185212
147.588	-0.1530741922810387	0.1269739563853999	0.2249642461324123	1.203107134277798	0.9628388863159638	-0.354299068655617	0.2003972883122415	-0.2416125745602171	-0.1085286810613395	1.48839657097344	1.488396570323116	-0.3921757164063653	-0.3803206666144978	0.4936211994918046	0.2391536210250725	0.02521168055316689	0.7450636693566347	0.7450636692507396	0.2166099822927826	-0.2828118870270712
147.592	-0.1564176526629032	0.1302834397817129	0.2272601598563754	1.201611725460757	0.9597304972581958	-0.3551173574250988	0.2230297884056415	-0.2521669655905927	-0.1041921424293697	1.514324919549754	1.514324918917997	-0.3856349655429265	-0.381285258832819	0.4948273256471675	0.2456999880723408	0.02775287422523608	0.7644628245056277	0.7644628244572984	0.228518253121879	-0.2973816889120046
147.596	-0.1593852384940459	0.1334734721953809	0.2287471438607202	1.200141957461735	0.9569087634883138	-0.3558276899270791	0.2456822413053215	-0.2618989096876037	-0.09860005893419511	1.538396446144215	1.538396445526195	-0.3793419194892977	-0.3823356542950533	0.4945472979966855	0.2516227233427427	0.03025299476608677	0.7816812322397837	0.7816812322991626	0.239221503192755	-0.3111647073184681
147.6	-0.1618263679740746	0.1365065875700726	0.229328477066822	1.198715582192617	0.9544059392713778	-0.3564164382670041	0.2681517932948429	-0.270639350817684	-0.09177411823776038	1.560457950989214	1.560457950383409	-0.3732209261802391	-0.3833571155927216	0.4925568076527034	0.2568001949343199	0.03267595508375674	0.7965954313962134	0.7965954316137711	0.2487079789569408	-0.3240518026757996
